<?xml version="1.0" encoding="UTF-8"?>
<!DOCTYPE svg PUBLIC "-//W3C//DTD SVG 1.1//EN" "http://www.w3.org/Graphics/SVG/1.1/DTD/svg11.dtd">
<!-- Creator: CorelDRAW 2019 (64-Bit) -->
<svg xmlns="http://www.w3.org/2000/svg" xml:space="preserve" width="100%" height="100%" version="1.1" style="shape-rendering:geometricPrecision; text-rendering:geometricPrecision; image-rendering:optimizeQuality; fill-rule:evenodd; clip-rule:evenodd"
viewBox="0 0 196.45 190.5"
 xmlns:xlink="http://www.w3.org/1999/xlink"
 xmlns:xodm="http://www.corel.com/coreldraw/odm/2003">
 <defs>
  <style type="text/css">
   <![CDATA[
    .fil0 {fill:white}
   ]]>
  </style>
 </defs>
 <g id="Capa_x0020_1">
  <metadata id="CorelCorpID_0Corel-Layer"/>
  <path class="fil0" d="M-0 0l101.2 0c52.39,0 95.25,42.86 95.25,95.25l0 0c0,52.39 -42.86,95.25 -95.25,95.25l-101.2 0 0 -190.5zm125.08 47.5c13.83,11.47 15.74,31.98 4.28,45.81 -11.48,13.82 -31.97,15.73 -45.82,4.26 -13.82,-11.46 -15.73,-31.97 -4.26,-45.8 11.46,-13.82 31.97,-15.73 45.8,-4.27zm-47.02 65.18l-5.59 6.74c1.97,4.27 1.47,9.49 -1.72,13.33l-23.75 28.65c-4.43,5.33 -12.4,6.07 -17.74,1.65l0 0c-5.33,-4.43 -6.08,-12.4 -1.65,-17.73l23.75 -28.65c3.19,-3.84 8.22,-5.3 12.79,-4.16l5.58 -6.73c-16.72,-17.34 -18.09,-44.87 -2.34,-63.87 16.92,-20.39 47.15,-23.21 67.55,-6.3 20.4,16.92 23.22,47.16 6.31,67.55 -15.75,18.99 -43.03,22.75 -63.19,9.52z"/>
 </g>
</svg>
